<svg xmlns="http://www.w3.org/2000/svg" width="790" height="450" viewBox="0 0 790 450" font-family="Helvetica, Arial, sans-serif">
<rect width="790" height="450" fill="white"/>
<defs><marker id="a" viewBox="0 0 10 10" refX="9" refY="5" markerWidth="7" markerHeight="7" orient="auto-start-reverse"><path d="M 0 0 L 10 5 L 0 10 z" fill="#2e6da4"/></marker></defs>
<text x="70" y="26" text-anchor="middle" font-size="12" font-weight="bold" fill="#1a3a5c">Officier</text>
<line x1="70" y1="60" x2="70" y2="430" stroke="#c8d2dc" stroke-width="1.2" stroke-dasharray="4,4"/>
<text x="230" y="26" text-anchor="middle" font-size="12" font-weight="bold" fill="#1a3a5c">Formulaire</text>
<text x="230" y="40" text-anchor="middle" font-size="12" font-weight="bold" fill="#1a3a5c">OpenCRVS</text>
<line x1="230" y1="60" x2="230" y2="430" stroke="#c8d2dc" stroke-width="1.2" stroke-dasharray="4,4"/>
<text x="400" y="26" text-anchor="middle" font-size="12" font-weight="bold" fill="#1a3a5c">Stockage</text>
<text x="400" y="40" text-anchor="middle" font-size="12" font-weight="bold" fill="#1a3a5c">MinIO</text>
<line x1="400" y1="60" x2="400" y2="430" stroke="#c8d2dc" stroke-width="1.2" stroke-dasharray="4,4"/>
<text x="570" y="26" text-anchor="middle" font-size="12" font-weight="bold" fill="#1a3a5c">Service OCR</text>
<line x1="570" y1="60" x2="570" y2="430" stroke="#c8d2dc" stroke-width="1.2" stroke-dasharray="4,4"/>
<text x="710" y="26" text-anchor="middle" font-size="12" font-weight="bold" fill="#1a3a5c">Modèle VLM</text>
<line x1="710" y1="60" x2="710" y2="430" stroke="#c8d2dc" stroke-width="1.2" stroke-dasharray="4,4"/>
<line x1="70" y1="90" x2="230" y2="90" stroke="#2e6da4" stroke-width="1.8" marker-end="url(#a)"/>
<text x="150.0" y="83" text-anchor="middle" font-size="11" font-weight="normal" fill="#5a6672">dépose le scan</text>
<line x1="230" y1="130" x2="400" y2="130" stroke="#2e6da4" stroke-width="1.8" marker-end="url(#a)"/>
<text x="315.0" y="123" text-anchor="middle" font-size="11" font-weight="normal" fill="#5a6672">téléverse le fichier</text>
<line x1="400" y1="170" x2="230" y2="170" stroke="#2e6da4" stroke-width="1.8" marker-end="url(#a)"/>
<text x="315.0" y="163" text-anchor="middle" font-size="11" font-weight="normal" fill="#5a6672">chemin du fichier</text>
<line x1="230" y1="210" x2="570" y2="210" stroke="#2e6da4" stroke-width="1.8" marker-end="url(#a)"/>
<text x="400.0" y="203" text-anchor="middle" font-size="11" font-weight="normal" fill="#5a6672">POST /analyze { path }</text>
<line x1="570" y1="250" x2="400" y2="250" stroke="#2e6da4" stroke-width="1.8" marker-end="url(#a)"/>
<text x="485.0" y="243" text-anchor="middle" font-size="11" font-weight="normal" fill="#5a6672">lit le fichier</text>
<line x1="570" y1="290" x2="710" y2="290" stroke="#2e6da4" stroke-width="1.8" marker-end="url(#a)"/>
<text x="640.0" y="283" text-anchor="middle" font-size="11" font-weight="normal" fill="#5a6672">extraction (2 passes)</text>
<line x1="710" y1="330" x2="570" y2="330" stroke="#2e6da4" stroke-width="1.8" marker-end="url(#a)"/>
<text x="640.0" y="323" text-anchor="middle" font-size="11" font-weight="normal" fill="#5a6672">champs bruts</text>
<line x1="570" y1="370" x2="230" y2="370" stroke="#2e6da4" stroke-width="1.8" marker-end="url(#a)"/>
<text x="400.0" y="363" text-anchor="middle" font-size="11" font-weight="normal" fill="#5a6672">valeurs par identifiant de champ</text>
<line x1="230" y1="410" x2="70" y2="410" stroke="#2e6da4" stroke-width="1.8" marker-end="url(#a)"/>
<text x="150.0" y="403" text-anchor="middle" font-size="11" font-weight="normal" fill="#5a6672">formulaire pré-rempli</text>
</svg>
