<svg xmlns="http://www.w3.org/2000/svg" width="800" height="395" viewBox="0 0 800 395" font-family="Helvetica, Arial, sans-serif">
<rect width="800" height="395" fill="white"/>
<defs><marker id="a" viewBox="0 0 10 10" refX="9" refY="5" markerWidth="7" markerHeight="7" orient="auto-start-reverse"><path d="M 0 0 L 10 5 L 0 10 z" fill="#2e6da4"/></marker></defs>
<rect x="230" y="30" width="250" height="44" rx="6" fill="white" stroke="#1a3a5c" stroke-width="1.4"/><text x="355.0" y="57.0" text-anchor="middle" font-size="13" font-weight="bold" fill="#1a3a5c">Champ extrait</text>
<line x1="355" y1="74" x2="355" y2="108" stroke="#2e6da4" stroke-width="1.8" marker-end="url(#a)"/>
<polygon points="355,110 520,175 355,240 190,175" fill='#eef2f6' stroke="#e9a13b" stroke-width="1.6"/>
<text x="355" y="170" text-anchor="middle" font-size="13" font-weight="bold" fill="#1a3a5c">Format valide ?</text>
<text x="355" y="188" text-anchor="middle" font-size="12" font-weight="normal" fill="#5a6672">confiance ≥ 0,6 ?</text>
<line x1="520" y1="175" x2="600" y2="175" stroke="#2a9d8f" stroke-width="1.8" marker-end="url(#a)"/>
<rect x="600" y="148" width="190" height="54" rx="6" fill="white" stroke="#2a9d8f" stroke-width="1.4"/><text x="695.0" y="169.0" text-anchor="middle" font-size="13" font-weight="bold" fill="#1a3a5c">Pré-rempli</text><text x="695.0" y="187.0" text-anchor="middle" font-size="10" fill="#5a6672">auto-accepté</text>
<line x1="355" y1="240" x2="355" y2="285" stroke="#e9a13b" stroke-width="1.8" marker-end="url(#a)"/>
<rect x="230" y="288" width="250" height="54" rx="6" fill="white" stroke="#e9a13b" stroke-width="1.4"/><text x="355.0" y="309.0" text-anchor="middle" font-size="13" font-weight="bold" fill="#1a3a5c">Pré-rempli + signalé</text><text x="355.0" y="327.0" text-anchor="middle" font-size="10" fill="#5a6672">« à vérifier »</text>
<line x1="190" y1="175" x2="110" y2="175" stroke="#c0504d" stroke-width="1.8" marker-end="url(#a)"/>
<rect x="10" y="148" width="170" height="54" rx="6" fill="white" stroke="#c0504d" stroke-width="1.4"/><text x="95.0" y="169.0" text-anchor="middle" font-size="13" font-weight="bold" fill="#1a3a5c">Non pré-rempli</text><text x="95.0" y="187.0" text-anchor="middle" font-size="10" fill="#5a6672">commentaire seul</text>
<text x="540" y="165" text-anchor="start" font-size="11" font-weight="normal" fill="#2a9d8f">oui</text>
<text x="362" y="268" text-anchor="start" font-size="11" font-weight="normal" fill="#e9a13b">confiance basse</text>
<text x="118" y="165" text-anchor="end" font-size="11" font-weight="normal" fill="#c0504d">format invalide</text>
<text x="10" y="375" text-anchor="start" font-size="11" font-weight="normal" fill="#5a6672">Aucune branche n'invente de valeur : le doute est toujours rendu visible à l'officier.</text>
</svg>
